<svg xmlns="http://www.w3.org/2000/svg" version="1.1" xmlns:xlink="http://www.w3.org/1999/xlink" xmlns:svgjs="http://svgjs.dev/svgjs" width="256" height="256"><svg width="256" height="256" viewBox="0 0 256 256" fill="none" xmlns="http://www.w3.org/2000/svg">
<rect width="256" height="256" rx="24" fill="#12141F"></rect>
<path fill-rule="evenodd" clip-rule="evenodd" d="M128 229C183.781 229 229 183.781 229 128C229 72.2192 183.781 27 128 27C72.2192 27 27 72.2192 27 128C27 168.132 50.4063 202.797 84.3122 219.088V90.0798H114.204V99.6605C117.398 96.0837 120.974 93.3372 124.934 91.4211C129.022 89.505 133.429 88.5469 138.156 88.5469C146.204 88.5469 153.549 90.7824 160.191 95.2534C166.834 99.7244 172.135 105.792 176.095 113.457C180.055 121.121 182.035 129.808 182.035 139.516C182.035 149.097 180.055 157.783 176.095 165.576C172.135 173.24 166.834 179.308 160.191 183.779C153.549 188.25 146.204 190.486 138.156 190.486C133.812 190.486 129.661 189.655 125.701 187.995C121.869 186.206 118.419 183.779 115.354 180.713V228.216C119.496 228.733 123.717 229 128 229ZM141.988 162.702C138.922 164.873 135.218 165.959 130.874 165.959C127.936 165.959 125.126 165.448 122.443 164.426C119.889 163.276 117.525 161.743 115.354 159.827V119.205C117.525 117.289 119.889 115.82 122.443 114.798C125.126 113.648 127.936 113.073 130.874 113.073C135.218 113.073 138.922 114.159 141.988 116.331C145.054 118.503 147.417 121.568 149.078 125.528C150.738 129.488 151.569 134.151 151.569 139.516C151.569 144.754 150.738 149.416 149.078 153.504C147.417 157.464 145.054 160.53 141.988 162.702Z" fill="#F6F6F6"></path>
</svg><style>@media (prefers-color-scheme: light) { :root { filter: none; } }
@media (prefers-color-scheme: dark) { :root { filter: none; } }
</style></svg>