<svg width="48" height="48" viewBox="0 0 48 48" fill="none" xmlns="http://www.w3.org/2000/svg">
<mask id="mask0_1018_676" style="mask-type:alpha" maskUnits="userSpaceOnUse" x="0" y="0" width="48" height="48">
<rect width="48" height="48" fill="#D9D9D9"/>
</mask>
<g mask="url(#mask0_1018_676)">
<path d="M39.8826 46.1044L33.7761 39.9414C33.0181 40.3994 32.215 40.7964 31.3666 41.1324C30.518 41.4688 29.6313 41.7348 28.7066 41.9304V37.3499C29.0226 37.2399 29.3349 37.1298 29.6436 37.0194C29.9523 36.9094 30.2501 36.7754 30.5371 36.6174L24.7066 30.7304V42.2889L13.3781 30.9609H4.81311V17.0389H11.2696L1.83911 7.43895L4.92161 4.35645L42.9936 42.9934L39.8826 46.1044ZM40.2176 33.9109L37.0066 30.6434C37.5733 29.6288 37.9983 28.5596 38.2816 27.4359C38.5649 26.3119 38.7066 25.1499 38.7066 23.9499C38.7066 20.8356 37.7806 18.0498 35.9286 15.5924C34.0763 13.1351 31.6689 11.4543 28.7066 10.5499V5.96945C32.9529 6.92178 36.4233 9.06995 39.1176 12.4139C41.8119 15.7583 43.1591 19.6036 43.1591 23.9499C43.1591 25.7919 42.9033 27.5484 42.3916 29.2194C41.88 30.8904 41.1553 32.4543 40.2176 33.9109ZM33.5456 27.1544L28.7066 22.2584V15.5609C30.3486 16.3319 31.6678 17.4743 32.6641 18.9879C33.6608 20.5016 34.1591 22.1723 34.1591 23.9999C34.1591 24.5566 34.1079 25.1001 34.0056 25.6304C33.9033 26.1608 33.7499 26.6688 33.5456 27.1544ZM24.7066 18.1739L18.5456 11.8714L24.7066 5.71094V18.1739Z" fill="#D9D9D9"/>
</g>
</svg>
