<svg width="48" height="48" viewBox="0 0 48 48" fill="none" xmlns="http://www.w3.org/2000/svg">
<mask id="mask0_1018_670" style="mask-type:alpha" maskUnits="userSpaceOnUse" x="0" y="0" width="48" height="48">
<rect width="48" height="48" fill="white"/>
</mask>
<g mask="url(#mask0_1018_670)">
<path d="M18.7741 33.3956L33.3956 24.0001L18.7741 14.6046V33.3956ZM24.0001 44.9611C21.0827 44.9611 18.3509 44.4117 15.8046 43.3131C13.2586 42.2144 11.0439 40.7232 9.16056 38.8396C7.2769 36.9562 5.78573 34.7416 4.68706 32.1956C3.5884 29.6492 3.03906 26.9174 3.03906 24.0001C3.03906 21.0827 3.5884 18.3509 4.68706 15.8046C5.78573 13.2586 7.2769 11.0439 9.16056 9.16056C11.0439 7.2769 13.2586 5.78573 15.8046 4.68706C18.3509 3.58839 21.0827 3.03906 24.0001 3.03906C26.9174 3.03906 29.6492 3.58839 32.1956 4.68706C34.7416 5.78573 36.9562 7.2769 38.8396 9.16056C40.7232 11.0439 42.2144 13.2586 43.3131 15.8046C44.4117 18.3509 44.9611 21.0827 44.9611 24.0001C44.9611 26.9174 44.4117 29.6492 43.3131 32.1956C42.2144 34.7416 40.7232 36.9562 38.8396 38.8396C36.9562 40.7232 34.7416 42.2144 32.1956 43.3131C29.6492 44.4117 26.9174 44.9611 24.0001 44.9611Z" fill="#FEFCFF"/>
</g>
</svg>
