<svg width="48" height="48" viewBox="0 0 48 48" fill="none" xmlns="http://www.w3.org/2000/svg">
<mask id="mask0_998_708" style="mask-type:alpha" maskUnits="userSpaceOnUse" x="0" y="0" width="48" height="48">
<rect width="48" height="48" fill="#D9D9D9"/>
</mask>
<g mask="url(#mask0_998_708)">
<path d="M10.3391 42.9611C8.8624 42.9611 7.6099 42.4469 6.58156 41.4186C5.55323 40.3902 5.03906 39.1377 5.03906 37.6611V10.3391C5.03906 8.8624 5.55323 7.60989 6.58156 6.58156C7.6099 5.55323 8.8624 5.03906 10.3391 5.03906H37.6611C39.1377 5.03906 40.3902 5.55323 41.4186 6.58156C42.4469 7.60989 42.9611 8.8624 42.9611 10.3391V37.6611C42.9611 39.1377 42.4469 40.3902 41.4186 41.4186C40.3902 42.4469 39.1377 42.9611 37.6611 42.9611H10.3391ZM14.1696 33.8306H28.1696V29.8306H14.1696V33.8306ZM14.1696 26.0001H33.8306V22.0001H14.1696V26.0001ZM14.1696 18.1696H33.8306V14.1696H14.1696V18.1696Z" fill="white"/>
</g>
</svg>
