<svg width="48" height="48" viewBox="0 0 48 48" fill="none" xmlns="http://www.w3.org/2000/svg">
<g clip-path="url(#clip0_998_680)">
<path d="M47.8557 14.4209C47.7389 11.9478 47.3331 10.2588 46.7399 8.78118C46.1375 7.23085 45.1926 5.82658 43.9717 4.66587C42.7731 3.48389 41.3221 2.56886 39.7207 1.98532C38.194 1.41135 36.4497 1.01889 33.895 0.906505C31.3356 0.793057 30.5178 0.766113 24 0.766113C17.4822 0.766113 16.6644 0.793057 14.105 0.905795C11.5503 1.01889 9.80603 1.4117 8.2793 1.98603C6.67786 2.56922 5.22729 3.48389 4.02832 4.66587C2.80737 5.82623 1.86218 7.23049 1.2594 8.78082C0.666504 10.2588 0.261108 11.9478 0.14502 14.4206C0.027832 16.8987 0 17.69 0 23.9998C0 30.31 0.027832 31.1016 0.14502 33.5794C0.261475 36.0522 0.667236 37.7411 1.2605 39.2191C1.86292 40.7691 2.80774 42.1737 4.02869 43.3341C5.22729 44.5161 6.67822 45.4307 8.27966 46.0139C9.80603 46.5886 11.5507 46.9811 14.1053 47.0942C16.6652 47.2073 17.4825 47.2338 24.0004 47.2338C30.5182 47.2338 31.3359 47.2073 33.8954 47.0942C36.4501 46.9811 38.1943 46.5886 39.7211 46.0139C42.9448 44.8071 45.4933 42.34 46.7399 39.2191C47.3335 37.7411 47.7389 36.0522 47.8557 33.5794C47.9722 31.1013 48 30.31 48 24.0002C48 17.69 47.9722 16.8987 47.8557 14.4209V14.4209ZM43.5355 33.389C43.429 35.6544 43.0378 36.8846 42.7094 37.7032C41.9019 39.7296 40.2477 41.331 38.1544 42.1128C37.3088 42.4308 36.0381 42.8094 33.698 42.9126C31.1678 43.0246 30.4087 43.048 24 43.048C17.5909 43.048 16.8322 43.0246 14.3016 42.9126C11.9619 42.8094 10.6912 42.4308 9.84521 42.1128C8.80298 41.7402 7.85999 41.1463 7.08582 40.3745C6.28857 39.6251 5.67517 38.7125 5.29028 37.7032C4.96179 36.8846 4.57068 35.6544 4.46411 33.389C4.34875 30.9392 4.32422 30.2043 4.32422 24.0005C4.32422 17.7964 4.34875 17.0618 4.46411 14.6117C4.57104 12.3463 4.96179 11.1161 5.29028 10.2975C5.67517 9.28815 6.28894 8.37525 7.08582 7.62579C7.85999 6.85399 8.80298 6.26016 9.84558 5.88791C10.6912 5.56955 11.9619 5.19127 14.302 5.08775C16.8325 4.97608 17.5917 4.95233 24 4.95233H23.9996C30.408 4.95233 31.1671 4.97608 33.698 5.08811C36.0381 5.19127 37.3085 5.5699 38.1544 5.88791C39.1967 6.26052 40.1396 6.85434 40.9138 7.62579C41.7111 8.37525 42.3245 9.28815 42.709 10.2975C43.0378 11.1161 43.429 12.3463 43.5355 14.6117C43.6509 17.0614 43.6754 17.7964 43.6754 24.0002C43.6754 30.2043 43.6512 30.9389 43.5355 33.389Z" fill="white"/>
<path d="M23.9999 12.0688C17.1935 12.0688 11.6758 17.4108 11.6758 24C11.6758 30.5891 17.1935 35.9307 23.9999 35.9307C30.8066 35.9307 36.3243 30.5891 36.3243 24C36.3243 17.4108 30.8066 12.0688 23.9999 12.0688V12.0688ZM23.9999 31.7445C19.5819 31.7442 16 28.2769 16.0004 23.9996C16.0004 19.7227 19.5819 16.2551 24.0002 16.2551C28.4186 16.2554 32.0001 19.7227 32.0001 23.9996C32.0001 28.2769 28.4182 31.7445 23.9999 31.7445V31.7445Z" fill="white"/>
<path d="M39.6908 11.5979C39.6908 13.1376 38.4014 14.3859 36.8109 14.3859C35.2201 14.3859 33.9307 13.1376 33.9307 11.5979C33.9307 10.0578 35.2201 8.80957 36.8109 8.80957C38.4014 8.80957 39.6908 10.0578 39.6908 11.5979V11.5979Z" fill="white"/>
</g>
<defs>
<clipPath id="clip0_998_680">
<rect width="48" height="48" fill="white"/>
</clipPath>
</defs>
</svg>
