<svg width="48" height="48" viewBox="0 0 48 48" fill="none" xmlns="http://www.w3.org/2000/svg">
<path d="M4.62257 17.2296V44H12.8716V17.2296H4.62257ZM8.8249 4C6.17899 4 4 6.17899 4 8.8249C4 11.4708 6.17899 13.6498 8.8249 13.6498C11.4708 13.6498 13.6498 11.4708 13.6498 8.8249C13.6498 6.17899 11.4708 4 8.8249 4ZM18.0078 17.2296H18.1634V43.6887H26.4125V30.4591C26.4125 27.035 27.035 23.6109 31.393 23.6109C35.751 23.6109 35.751 27.6576 35.751 30.7704V43.8444H44V29.214C44 22.0545 42.4436 16.4514 34.0389 16.4514C29.9922 16.4514 27.1907 18.6304 26.1012 20.8093H25.9455V17.2296H18.0078Z" fill="white"/>
</svg>
