<svg width="48" height="48" viewBox="0 0 48 48" fill="none" xmlns="http://www.w3.org/2000/svg">
<mask id="mask0_998_702" style="mask-type:alpha" maskUnits="userSpaceOnUse" x="0" y="0" width="48" height="48">
<rect width="48" height="48" fill="#D9D9D9"/>
</mask>
<g mask="url(#mask0_998_702)">
<path d="M8.33906 40.9611C6.8624 40.9611 5.6099 40.4469 4.58156 39.4186C3.55323 38.3902 3.03906 37.1377 3.03906 35.6611V12.3391C3.03906 10.8624 3.55323 9.60989 4.58156 8.58156C5.6099 7.55323 6.8624 7.03906 8.33906 7.03906H39.6611C41.1377 7.03906 42.3902 7.55323 43.4186 8.58156C44.4469 9.60989 44.9611 10.8624 44.9611 12.3391V35.6611C44.9611 37.1377 44.4469 38.3902 43.4186 39.4186C42.3902 40.4469 41.1377 40.9611 39.6611 40.9611H8.33906ZM24.0001 27.2156L39.6611 17.2156V12.3391L24.0001 22.3391L8.33906 12.3391V17.2156L24.0001 27.2156Z" fill="white"/>
</g>
</svg>
