<svg width="48" height="48" viewBox="0 0 48 48" fill="none" xmlns="http://www.w3.org/2000/svg">
<g clip-path="url(#clip0_998_682)">
<path fill-rule="evenodd" clip-rule="evenodd" d="M45.4622 9.76727C46.2038 10.5089 46.7383 11.4319 47.0123 12.4443C48 16.1973 48 24.0196 48 24.0196C48 24.0196 48 31.8023 47.0123 35.5554C46.7383 36.5678 46.2038 37.4907 45.4622 38.2323C44.7205 38.974 43.7976 39.5084 42.7852 39.7825C39.0321 40.8097 24.0198 40.8097 24.0198 40.8097C24.0198 40.8097 9.00741 40.8097 5.25432 39.7825C4.24193 39.5084 3.31897 38.974 2.57733 38.2323C1.83569 37.4907 1.30123 36.5678 1.02716 35.5554C0 31.8023 0 24.0196 0 24.0196C0 24.0196 0 16.1973 1.02716 12.4443C1.30123 11.4319 1.83569 10.5089 2.57733 9.76727C3.31897 9.02563 4.24193 8.49117 5.25432 8.2171C9.00741 7.18994 24.0198 7.18994 24.0198 7.18994C24.0198 7.18994 39.0321 7.18994 42.7852 8.2171C43.7976 8.49117 44.7205 9.02563 45.4622 9.76727ZM31.6842 23.9801L19.2003 31.1702V16.79L31.6842 23.9801Z" fill="white"/>
</g>
<defs>
<clipPath id="clip0_998_682">
<rect width="48" height="48" fill="white"/>
</clipPath>
</defs>
</svg>
